<?xml version="1.0" encoding="utf-8"?>
<!-- Generator: Adobe Illustrator 16.0.0, SVG Export Plug-In . SVG Version: 6.00 Build 0)  -->
<!DOCTYPE svg PUBLIC "-//W3C//DTD SVG 1.1//EN" "http://www.w3.org/Graphics/SVG/1.1/DTD/svg11.dtd">
<svg version="1.1" id="Layer_1" xmlns="http://www.w3.org/2000/svg" xmlns:xlink="http://www.w3.org/1999/xlink" x="0px" y="0px"
	 width="800px" height="800px" viewBox="0 0 800 800" enable-background="new 0 0 800 800" xml:space="preserve">
<g>
	<g>
		<path fill="#5E8CDA" d="M504.106,216.664l-63.308-63.288l-26.95,34.22l29.07,29.068c2.673,2.684,2.673,7.068,0,9.741l-8.413,8.42
			c0,0,5.67,8.481,5.925,9.002c1.311,2.616,1.618,8.768-2.084,11.589l-66.12,50.754c-0.015,17.037-0.036,52.057-0.011,52.078
			c0.018,0,131.891-131.843,131.891-131.843C506.801,223.724,506.801,219.348,504.106,216.664z"/>
		<path fill="#093071" d="M357.082,224.629c-2.672-2.675-2.672-7.045,0-9.732l8.418-8.422l-5.756-8.27
			c-2.748-3.894-1.884-9.412,1.906-12.315l66.131-50.757l0.045-52.037l-0.045-0.023l-0.037-0.054L295.889,214.896
			c-2.682,2.688-2.682,7.058,0.006,9.745l63.293,63.299l26.97-34.229L357.082,224.629z"/>
	</g>
	<g>
		<g>
			<g>
				<path fill="#5E8CDA" d="M461.104,113.862c1.25,0,2.457,0.758,3.002,1.887c1.014,2.054-0.435,3.909-1.239,4.94l-57.951,73.53
					c-0.576,0.75-0.627,2.353-0.099,3.117c0.313,0.454,31.299,45.387,32.358,46.907c1.521,2.188,1.377,7.828-1.655,10.129
					l-93.158,71.518c-1.265,0.974-2.269,1.539-3.638,1.549c-1.169-0.074-2.334-0.84-2.833-1.861
					c-1.004-2.045,0.435-3.93,1.232-4.975l57.936-73.516c0.594-0.787,0.651-2.305,0.113-3.129l-32.338-46.499
					c-2.341-3.329-1.612-8.051,1.625-10.525l93.174-71.531C459.045,114.309,460.051,113.862,461.104,113.862 M461.104,113.612
					c-1.122,0-2.166,0.464-3.625,1.594l-93.173,71.53c-3.348,2.559-4.095,7.43-1.678,10.867l32.338,46.498
					c0.473,0.725,0.417,2.141-0.107,2.836l-57.933,73.512c-0.759,0.994-2.346,3.029-1.261,5.239
					c0.537,1.099,1.785,1.921,3.042,2.001c1.454-0.011,2.498-0.594,3.807-1.601l93.158-71.518c3.219-2.442,3.24-8.265,1.708-10.47
					c-1.071-1.538-32.357-46.906-32.357-46.906c-0.475-0.688-0.421-2.157,0.091-2.823l57.949-73.528
					c0.763-0.978,2.363-2.984,1.268-5.205C463.741,114.42,462.455,113.612,461.104,113.612L461.104,113.612z"/>
			</g>
		</g>
		<g>
			<path fill="#F5CD21" d="M434.024,244.968c0.765,1.139,1.438,5.432-0.444,6.864l-93.185,71.521
				c-0.777,0.6-1.285,0.896-1.508,0.877c-0.32,0.019-0.086-0.548,0.769-1.65l57.922-73.5c1.463-1.887,1.558-5.004,0.213-6.946
				l-32.323-46.518C365.468,195.616,433.285,243.827,434.024,244.968z"/>
		</g>
		<g>
			<path fill="#FDDD75" d="M434.024,244.968l-31.829-45.809c-1.343-1.944-1.244-5.058,0.213-6.91l57.917-73.523
				c0.873-1.106,1.094-1.65,0.778-1.65c-0.228,0-0.748,0.271-1.513,0.875l-93.18,71.523c-1.869,1.436-2.31,4.211-0.943,6.143
				L434.024,244.968z"/>
		</g>
	</g>
</g>
<g>
	<path fill="#5E8CDA" d="M114.608,505.605V392.212h6.353v106.882h31.922v6.512H114.608z"/>
	<path fill="#5E8CDA" d="M164.317,428.263c-1.167,0-2.382-0.477-3.653-1.43c-0.953-0.953-1.484-2.224-1.588-3.812
		c0-2.858,1.747-4.605,5.241-5.241c2.645,0,4.392,1.747,5.241,5.241C169.558,426.516,167.811,428.263,164.317,428.263z
		 M160.982,505.605v-65.591h6.511v65.591H160.982z"/>
	<path fill="#5E8CDA" d="M198.937,446.526v59.079h-6.511v-59.079h-8.894v-6.512h8.894V411.27h6.511v28.745h15.247v6.512H198.937z"/>
	<path fill="#5E8CDA" d="M230.065,471.46c0,8.894,2.382,15.937,7.146,21.123c4.976,5.295,11.805,7.94,20.487,7.94
		c4.447,0,8.469-0.739,12.07-2.224c4.551-1.905,8.628-5.77,12.229-11.594l5.876,2.7c-4.129,7.837-10.482,13.13-19.058,15.882
		c-3.283,1.057-6.988,1.588-11.117,1.588c-9.847,0-17.946-3.229-24.299-9.688c-6.459-6.457-9.688-14.557-9.688-24.299
		c0-9.847,3.176-17.946,9.529-24.299c6.457-6.457,14.611-9.688,24.458-9.688c9.74,0,17.787,3.018,24.14,9.052
		c6.457,6.035,9.688,13.872,9.688,23.505H230.065z M274.851,450.655c-4.978-3.598-10.695-5.399-17.152-5.399
		c-13.554,0-22.448,6.67-26.681,20.011h53.203C283.161,459.231,280.037,454.362,274.851,450.655z"/>
	<path fill="#5E8CDA" d="M346.794,504.652c-4.129,1.481-9,2.224-14.611,2.224c-17.366,0-28.535-8.204-33.51-24.616l6.512-2.224
		c3.705,13.554,12.705,20.328,26.999,20.328c8.151,0,14.556-2.01,19.216-6.034c4.765-4.13,7.147-10.165,7.147-18.105
		c0-7.517-2.807-13.763-8.417-18.74c-1.484-1.375-3.759-2.911-6.829-4.605c-3.072-1.692-6.988-3.599-11.752-5.718
		c-9-4.022-15.142-7.516-18.423-10.481c-5.506-4.765-8.258-11.063-8.258-18.899c0-7.834,2.804-14.134,8.417-18.898
		c5.504-4.869,12.281-7.306,20.329-7.306c13.34,0,22.763,4.978,28.269,14.929l-6.194,2.7c-2.119-3.494-4.66-6.088-7.623-7.782
		c-3.708-2.328-8.524-3.494-14.452-3.494c-6.249,0-11.435,1.747-15.564,5.241c-4.447,3.707-6.67,8.576-6.67,14.61
		c0,5.4,2.328,10.112,6.988,14.135c2.645,2.119,7.94,4.979,15.881,8.576c4.975,2.224,9.263,4.422,12.864,6.591
		c3.598,2.171,6.512,4.367,8.735,6.591c6.139,6.035,9.211,13.554,9.211,22.552C365.058,490.625,358.969,500.102,346.794,504.652z"/>
	<path fill="#5E8CDA" d="M439.223,496.871c-6.566,6.565-14.611,9.846-24.141,9.846c-10.906,0-19.906-4.446-26.998-13.34v43.039
		h-6.512v-96.401h6.512v12.388c6.774-8.894,15.775-13.341,26.998-13.341c9.529,0,17.523,3.231,23.982,9.688
		c6.563,6.565,9.846,14.61,9.846,24.14C448.91,482.418,445.68,490.414,439.223,496.871z M434.459,453.514
		c-5.4-5.399-11.859-8.1-19.377-8.1c-7.623,0-14.082,2.648-19.375,7.941c-5.4,5.399-8.1,11.911-8.1,19.534
		c0,7.519,2.7,13.976,8.1,19.375c5.4,5.4,11.857,8.1,19.375,8.1c7.623,0,14.08-2.645,19.377-7.94c5.398-5.399,8.1-11.911,8.1-19.534
		C442.559,465.373,439.857,458.914,434.459,453.514z"/>
	<path fill="#5E8CDA" d="M464.631,471.46c0,8.894,2.383,15.937,7.147,21.123c4.975,5.295,11.804,7.94,20.486,7.94
		c4.447,0,8.47-0.739,12.07-2.224c4.551-1.905,8.628-5.77,12.229-11.594l5.877,2.7c-4.13,7.837-10.482,13.13-19.059,15.882
		c-3.282,1.057-6.987,1.588-11.117,1.588c-9.846,0-17.945-3.229-24.298-9.688c-6.46-6.457-9.688-14.557-9.688-24.299
		c0-9.847,3.177-17.946,9.529-24.299c6.457-6.457,14.611-9.688,24.457-9.688c9.74,0,17.788,3.018,24.141,9.052
		c6.456,6.035,9.688,13.872,9.688,23.505H464.631z M509.417,450.655c-4.978-3.598-10.695-5.399-17.152-5.399
		c-13.554,0-22.447,6.67-26.681,20.011h53.203C517.728,459.231,514.604,454.362,509.417,450.655z"/>
	<path fill="#5E8CDA" d="M548.64,471.46c0,8.894,2.383,15.937,7.147,21.123c4.975,5.295,11.804,7.94,20.486,7.94
		c4.447,0,8.47-0.739,12.07-2.224c4.551-1.905,8.628-5.77,12.229-11.594l5.877,2.7c-4.13,7.837-10.482,13.13-19.059,15.882
		c-3.282,1.057-6.987,1.588-11.117,1.588c-9.846,0-17.945-3.229-24.298-9.688c-6.46-6.457-9.688-14.557-9.688-24.299
		c0-9.847,3.177-17.946,9.529-24.299c6.457-6.457,14.611-9.688,24.457-9.688c9.74,0,17.788,3.018,24.141,9.052
		c6.456,6.035,9.688,13.872,9.688,23.505H548.64z M593.426,450.655c-4.978-3.598-10.695-5.399-17.152-5.399
		c-13.554,0-22.447,6.67-26.681,20.011h53.203C601.736,459.231,598.612,454.362,593.426,450.655z"/>
	<path fill="#5E8CDA" d="M682.044,505.605v-11.752c-6.988,8.575-15.882,12.863-26.682,12.863c-9.528,0-17.523-3.229-23.98-9.688
		c-6.566-6.563-9.847-14.611-9.847-24.14c0-9.529,3.229-17.521,9.688-23.981c6.563-6.563,14.611-9.847,24.14-9.847
		c10.482,0,19.376,4.288,26.682,12.864v-63.844h6.511v117.523H682.044z M674.738,453.514c-5.399-5.399-11.859-8.1-19.376-8.1
		c-7.623,0-14.082,2.648-19.375,7.941c-5.399,5.399-8.1,11.911-8.1,19.534c0,7.519,2.7,13.976,8.1,19.375
		c5.399,5.4,11.856,8.1,19.375,8.1c7.624,0,14.08-2.645,19.376-7.94c5.399-5.399,8.1-11.911,8.1-19.534
		C682.838,465.373,680.138,458.914,674.738,453.514z"/>
	<path fill="#093071" stroke="#093071" stroke-width="0.1" stroke-miterlimit="10" d="M146.615,676.594l-28.269-95.13l-28.428,95.13
		L53.549,561.612h6.353L89.6,654.36l28.746-94.813l28.587,94.813l29.698-92.748h6.67L146.615,676.594z"/>
	<path fill="#093071" stroke="#093071" stroke-width="0.1" stroke-miterlimit="10" d="M185.842,640.86
		c0,8.894,2.382,15.937,7.146,21.123c4.976,5.295,11.805,7.94,20.487,7.94c4.447,0,8.469-0.739,12.07-2.224
		c4.551-1.905,8.628-5.77,12.229-11.594l5.876,2.7c-4.129,7.837-10.482,13.13-19.058,15.882c-3.283,1.057-6.988,1.588-11.117,1.588
		c-9.847,0-17.946-3.229-24.299-9.688c-6.459-6.457-9.688-14.557-9.688-24.299c0-9.847,3.176-17.946,9.529-24.299
		c6.457-6.457,14.611-9.688,24.458-9.688c9.74,0,17.787,3.018,24.14,9.052c6.457,6.035,9.688,13.872,9.688,23.505H185.842z
		 M230.627,620.056c-4.978-3.598-10.695-5.399-17.152-5.399c-13.554,0-22.448,6.67-26.681,20.011h53.203
		C238.938,628.632,235.814,623.763,230.627,620.056z"/>
	<path fill="#093071" stroke="#093071" stroke-width="0.1" stroke-miterlimit="10" d="M318.133,666.271
		c-6.566,6.565-14.611,9.846-24.14,9.846c-10.906,0-19.852-4.392-26.84-13.182v12.07h-6.511V557.482h6.511v64.161
		c6.881-8.786,15.827-13.182,26.84-13.182c9.529,0,17.522,3.231,23.981,9.688c6.564,6.565,9.847,14.61,9.847,24.14
		C327.821,651.818,324.59,659.814,318.133,666.271z M313.369,622.914c-5.4-5.399-11.859-8.1-19.375-8.1
		c-7.623,0-14.083,2.648-19.375,7.941c-5.399,5.399-8.1,11.911-8.1,19.534c0,7.519,2.7,13.976,8.1,19.375
		c5.4,5.4,11.856,8.1,19.375,8.1c7.623,0,14.08-2.645,19.375-7.94c5.4-5.399,8.1-11.911,8.1-19.534
		C321.468,634.773,318.769,628.314,313.369,622.914z"/>
	<path fill="#093071" stroke="#093071" stroke-width="0.1" stroke-miterlimit="10" d="M404.038,674.053
		c-4.129,1.481-9,2.224-14.611,2.224c-17.366,0-28.535-8.204-33.51-24.616l6.512-2.224c3.705,13.554,12.705,20.328,26.999,20.328
		c8.151,0,14.556-2.01,19.216-6.034c4.765-4.13,7.146-10.165,7.146-18.105c0-7.517-2.807-13.763-8.417-18.74
		c-1.483-1.375-3.76-2.911-6.829-4.605c-3.072-1.692-6.988-3.599-11.752-5.718c-9-4.022-15.142-7.516-18.423-10.481
		c-5.506-4.765-8.258-11.063-8.258-18.899c0-7.834,2.804-14.134,8.417-18.898c5.504-4.869,12.281-7.306,20.329-7.306
		c13.341,0,22.763,4.978,28.27,14.929l-6.194,2.7c-2.119-3.494-4.66-6.088-7.623-7.782c-3.707-2.328-8.524-3.494-14.452-3.494
		c-6.249,0-11.435,1.747-15.564,5.241c-4.447,3.707-6.67,8.576-6.67,14.61c0,5.4,2.328,10.112,6.988,14.135
		c2.645,2.119,7.94,4.979,15.881,8.576c4.975,2.224,9.263,4.422,12.864,6.591c3.599,2.171,6.512,4.367,8.735,6.591
		c6.139,6.035,9.211,13.554,9.211,22.552C422.302,660.025,416.212,669.502,404.038,674.053z"/>
	<path fill="#093071" stroke="#093071" stroke-width="0.1" stroke-miterlimit="10" d="M440.404,640.86
		c0,8.894,2.383,15.937,7.147,21.123c4.975,5.295,11.804,7.94,20.486,7.94c4.447,0,8.47-0.739,12.07-2.224
		c4.551-1.905,8.628-5.77,12.229-11.594l5.877,2.7c-4.13,7.837-10.482,13.13-19.059,15.882c-3.282,1.057-6.987,1.588-11.117,1.588
		c-9.846,0-17.945-3.229-24.298-9.688c-6.46-6.457-9.688-14.557-9.688-24.299c0-9.847,3.177-17.946,9.529-24.299
		c6.457-6.457,14.611-9.688,24.457-9.688c9.74,0,17.788,3.018,24.141,9.052c6.456,6.035,9.688,13.872,9.688,23.505H440.404z
		 M485.19,620.056c-4.978-3.598-10.695-5.399-17.152-5.399c-13.554,0-22.447,6.67-26.681,20.011h53.203
		C493.501,628.632,490.377,623.763,485.19,620.056z"/>
	<path fill="#093071" stroke="#093071" stroke-width="0.1" stroke-miterlimit="10" d="M547.922,619.103
		c-1.695-1.271-3.494-2.275-5.4-3.018c-1.905-0.739-3.918-1.111-6.035-1.111c-1.801,0-3.493,0.556-5.082,1.668
		c-1.588,1.111-2.965,2.488-4.129,4.129c-1.166,1.643-2.092,3.469-2.779,5.479c-0.689,2.012-1.032,3.866-1.032,5.559v43.197h-6.512
		v-65.591h6.512v8.894c1.375-2.435,3.177-4.657,5.399-6.67c2.224-2.01,4.658-3.018,7.306-3.018c3.28,0,5.98,0.372,8.1,1.111
		c2.117,0.742,4.499,2.065,7.146,3.971L547.922,619.103z"/>
	<path fill="#093071" stroke="#093071" stroke-width="0.1" stroke-miterlimit="10" d="M590.96,677.864l-30.969-68.449h6.987
		l23.823,52.25l23.98-52.25h7.306L590.96,677.864z"/>
	<path fill="#093071" stroke="#093071" stroke-width="0.1" stroke-miterlimit="10" d="M636.539,640.86
		c0,8.894,2.383,15.937,7.147,21.123c4.975,5.295,11.804,7.94,20.486,7.94c4.447,0,8.47-0.739,12.07-2.224
		c4.551-1.905,8.628-5.77,12.229-11.594l5.877,2.7c-4.13,7.837-10.482,13.13-19.059,15.882c-3.282,1.057-6.987,1.588-11.117,1.588
		c-9.846,0-17.945-3.229-24.298-9.688c-6.46-6.457-9.688-14.557-9.688-24.299c0-9.847,3.177-17.946,9.529-24.299
		c6.457-6.457,14.611-9.688,24.457-9.688c9.74,0,17.788,3.018,24.141,9.052c6.456,6.035,9.688,13.872,9.688,23.505H636.539z
		 M681.325,620.056c-4.978-3.598-10.695-5.399-17.152-5.399c-13.554,0-22.447,6.67-26.681,20.011h53.203
		C689.636,628.632,686.512,623.763,681.325,620.056z"/>
	<path fill="#093071" stroke="#093071" stroke-width="0.1" stroke-miterlimit="10" d="M744.057,619.103
		c-1.695-1.271-3.494-2.275-5.4-3.018c-1.905-0.739-3.918-1.111-6.035-1.111c-1.801,0-3.493,0.556-5.082,1.668
		c-1.588,1.111-2.965,2.488-4.129,4.129c-1.166,1.643-2.092,3.469-2.779,5.479c-0.689,2.012-1.032,3.866-1.032,5.559v43.197h-6.512
		v-65.591h6.512v8.894c1.375-2.435,3.177-4.657,5.399-6.67c2.224-2.01,4.658-3.018,7.306-3.018c3.28,0,5.98,0.372,8.1,1.111
		c2.117,0.742,4.499,2.065,7.146,3.971L744.057,619.103z"/>
</g>
</svg>
